<?xml version="1.0" encoding="iso-8859-1"?>
<!-- Generator: Adobe Illustrator 19.0.0, SVG Export Plug-In . SVG Version: 6.00 Build 0)  -->
<svg version="1.1" id="Layer_1" xmlns="http://www.w3.org/2000/svg" xmlns:xlink="http://www.w3.org/1999/xlink" x="0px" y="0px"
	 viewBox="0 0 502 502" style="enable-background:new 0 0 502 502;" xml:space="preserve">
<g>
	<g>
		<path d="M405.889,348.576V105.273c0-2.652-1.054-5.196-2.929-7.071L307.688,2.929C305.812,1.054,303.269,0,300.617,0H70.783
			c-5.523,0-10,4.477-10,10v445.916c0,5.523,4.477,10,10,10h216.442C303.083,488.611,328.615,502,356.57,502
			c46.674,0,84.646-37.972,84.646-84.646C441.217,389.827,428.102,364.485,405.889,348.576z M80.783,20h215.691l76.158,76.158
			h-51.151c-5.522,0-10,4.477-10,10s4.478,10,10,10h64.408v221.789c-9.334-3.451-19.247-5.241-29.319-5.241
			c-46.675,0-84.647,37.973-84.647,84.647c0,9.793,1.692,19.45,4.955,28.562H80.783V20z M356.57,482
			c-22.766,0-43.43-11.629-55.277-31.107c-6.13-10.077-9.37-21.675-9.37-33.539c0-35.646,29.001-64.647,64.647-64.647
			c11.785,0,23.28,3.21,33.334,9.278c0.474,0.355,0.979,0.67,1.513,0.938c18.668,11.975,29.799,32.278,29.799,54.431
			C421.217,453,392.217,482,356.57,482z"/>
		<path d="M394.345,407.354h-27.776v-27.776c0-5.523-4.478-10-10-10s-10,4.477-10,10v27.776h-27.776c-5.522,0-10,4.477-10,10
			s4.478,10,10,10h27.776v27.776c0,5.523,4.478,10,10,10s10-4.477,10-10v-27.776h27.776c5.522,0,10-4.477,10-10
			S399.868,407.354,394.345,407.354z"/>
		<path d="M292.56,106.158c0-5.523-4.478-10-10-10h-11.447c-5.522,0-10,4.477-10,10s4.478,10,10,10h11.447
			C288.083,116.158,292.56,111.681,292.56,106.158z"/>
	</g>
</g>
<g>
</g>
<g>
</g>
<g>
</g>
<g>
</g>
<g>
</g>
<g>
</g>
<g>
</g>
<g>
</g>
<g>
</g>
<g>
</g>
<g>
</g>
<g>
</g>
<g>
</g>
<g>
</g>
<g>
</g>
</svg>
