<?xml version="1.0" encoding="iso-8859-1"?>
<!-- Generator: Adobe Illustrator 19.0.0, SVG Export Plug-In . SVG Version: 6.00 Build 0)  -->
<svg version="1.1" id="Layer_1" xmlns="http://www.w3.org/2000/svg" xmlns:xlink="http://www.w3.org/1999/xlink" x="0px" y="0px"
	 viewBox="0 0 460 460" style="enable-background:new 0 0 460 460;" xml:space="preserve">
<g>
	<g>
		<path d="M393.945,0H66.055C50.4,0,37.709,12.691,37.709,28.346v403.307C37.709,447.309,50.4,460,66.055,460h327.89
			c15.655,0,28.346-12.691,28.346-28.346V28.346C422.291,12.691,409.6,0,393.945,0z M109.248,351.667
			c-15.28,0-27.667-12.387-27.667-27.667c0-15.28,12.387-27.667,27.667-27.667c15.28,0,27.667,12.387,27.667,27.667
			C136.915,339.28,124.528,351.667,109.248,351.667z M109.248,257.667c-15.28,0-27.667-12.387-27.667-27.667
			c0-15.28,12.387-27.667,27.667-27.667c15.28,0,27.667,12.387,27.667,27.667C136.915,245.28,124.528,257.667,109.248,257.667z
			 M109.248,163.667c-15.28,0-27.667-12.387-27.667-27.667s12.387-27.667,27.667-27.667c15.28,0,27.667,12.387,27.667,27.667
			C136.915,151.28,124.528,163.667,109.248,163.667z M354.419,349H183.513c-13.807,0-25-11.193-25-25s11.193-25,25-25h170.906
			c13.807,0,25,11.193,25,25S368.226,349,354.419,349z M354.419,255H183.513c-13.807,0-25-11.193-25-25s11.193-25,25-25h170.906
			c13.807,0,25,11.193,25,25S368.226,255,354.419,255z M354.419,161H183.513c-13.807,0-25-11.193-25-25s11.193-25,25-25h170.906
			c13.807,0,25,11.193,25,25S368.226,161,354.419,161z"/>
	</g>
</g>
<g>
</g>
<g>
</g>
<g>
</g>
<g>
</g>
<g>
</g>
<g>
</g>
<g>
</g>
<g>
</g>
<g>
</g>
<g>
</g>
<g>
</g>
<g>
</g>
<g>
</g>
<g>
</g>
<g>
</g>
</svg>
